<?xml version="1.0" standalone="no"?>
<!DOCTYPE svg PUBLIC "-//W3C//DTD SVG 20010904//EN"
 "http://www.w3.org/TR/2001/REC-SVG-20010904/DTD/svg10.dtd">
<svg version="1.0" xmlns="http://www.w3.org/2000/svg"
 width="1280.000000pt" height="1280.000000pt" viewBox="0 0 1280.000000 1280.000000"
 preserveAspectRatio="xMidYMid meet">
<metadata>
Created by potrace 1.15, written by Peter Selinger 2001-2017
</metadata>
<g transform="translate(0.000000,1280.000000) scale(0.100000,-0.100000)"
fill="#000000" stroke="none">
<path d="M6325 12791 c-172 -46 -306 -211 -380 -468 -14 -48 -26 -87 -28 -88
-1 -1 -36 -7 -77 -13 -217 -36 -399 -205 -456 -423 -22 -84 -22 -225 0 -309
19 -69 58 -155 100 -216 14 -21 24 -39 22 -41 -2 -2 -48 8 -103 22 -385 99
-616 82 -746 -57 -51 -55 -102 -150 -112 -213 -13 -79 -12 -78 -49 -50 -88 67
-241 106 -338 86 -148 -31 -305 -185 -473 -461 l-72 -119 -21 85 c-38 153
-111 274 -219 359 -217 172 -499 177 -714 12 l-45 -34 -74 43 c-155 91 -340
136 -466 115 -165 -29 -266 -130 -295 -295 -21 -126 24 -311 115 -466 l43 -74
-34 -45 c-159 -208 -161 -480 -3 -693 89 -121 212 -200 372 -240 l87 -21 -119
-72 c-276 -168 -430 -325 -461 -473 -20 -97 19 -250 86 -338 28 -37 29 -36
-50 -49 -63 -10 -158 -61 -213 -112 -139 -130 -156 -361 -57 -746 14 -55 25
-101 23 -103 -2 -1 -30 14 -63 35 -203 128 -434 140 -639 33 -147 -77 -260
-235 -288 -402 -6 -41 -12 -76 -13 -77 -1 -2 -40 -14 -88 -28 -226 -65 -384
-179 -450 -325 -15 -34 -21 -66 -21 -130 0 -75 3 -92 29 -145 71 -141 240
-257 455 -313 l75 -19 11 -69 c37 -216 175 -381 380 -456 73 -27 237 -36 327
-18 67 13 181 62 243 103 21 15 39 25 41 23 2 -2 -8 -47 -21 -99 -98 -377 -82
-614 49 -742 58 -55 173 -113 243 -122 28 -3 52 -8 52 -10 0 -2 -11 -19 -25
-37 -67 -88 -106 -241 -86 -338 6 -29 26 -78 43 -108 64 -112 265 -280 472
-395 l69 -39 -91 -22 c-129 -32 -221 -83 -312 -174 -213 -212 -237 -527 -58
-759 l34 -44 -43 -76 c-112 -196 -148 -405 -93 -545 28 -74 95 -147 164 -181
149 -73 382 -38 590 88 l59 36 51 -39 c108 -80 209 -114 341 -114 293 1 532
209 595 519 l12 60 22 -39 c11 -21 61 -99 110 -174 106 -162 229 -291 321
-337 56 -28 67 -30 170 -29 97 0 117 3 167 26 32 15 73 38 91 52 37 29 47 26
47 -14 0 -38 33 -129 64 -179 95 -150 243 -206 482 -182 106 11 272 42 353 67
25 7 51 14 58 14 7 0 -5 -28 -27 -62 -244 -390 -38 -874 397 -933 52 -7 53 -8
63 -48 61 -243 180 -421 328 -490 56 -27 79 -32 142 -32 65 0 85 5 140 32 142
70 260 238 316 448 l21 79 85 17 c128 25 209 68 299 158 82 82 127 159 154
266 18 70 20 226 4 293 -13 52 -75 188 -109 240 -12 17 -18 32 -13 32 5 0 52
-11 106 -25 296 -75 523 -79 653 -12 85 44 188 201 201 306 3 28 8 51 10 51 2
0 19 -11 37 -25 17 -13 58 -36 91 -51 79 -37 219 -45 294 -18 134 48 296 222
442 476 l53 90 22 -91 c57 -230 218 -401 439 -467 86 -26 230 -23 315 6 72 24
138 59 189 101 l34 28 41 -25 c135 -84 294 -135 423 -135 142 -1 235 41 310
139 108 141 78 419 -71 658 l-25 41 28 34 c82 101 124 217 124 349 1 165 -57
305 -178 425 -85 86 -180 138 -307 169 l-90 22 90 53 c254 146 428 308 476
442 27 75 19 215 -18 294 -15 33 -38 74 -51 91 -14 18 -25 35 -25 37 0 2 23 7
51 10 105 13 262 116 306 201 67 129 62 370 -12 654 -14 52 -25 98 -25 104 0
5 15 0 33 -12 51 -34 187 -96 239 -109 67 -16 223 -14 293 4 107 27 184 72
266 154 90 90 133 171 158 299 l17 85 79 21 c146 39 279 112 368 202 154 157
150 363 -11 521 -90 88 -232 161 -397 202 l-41 11 -16 84 c-18 99 -49 170
-107 246 -185 244 -538 296 -818 120 -35 -22 -63 -34 -63 -27 0 7 7 33 14 58
25 81 56 247 67 353 13 127 0 246 -35 322 -45 98 -182 201 -291 219 -80 13
-79 13 -50 51 14 19 38 60 53 92 23 50 26 70 26 167 1 103 -1 114 -29 170 -46
92 -175 215 -337 321 -75 49 -153 99 -174 110 l-39 22 60 12 c309 63 519 303
519 595 0 133 -34 233 -114 341 l-39 51 36 59 c131 216 163 463 78 610 -118
204 -411 225 -716 51 l-76 -43 -44 34 c-232 179 -547 155 -759 -58 -91 -91
-142 -183 -174 -313 l-23 -92 -26 52 c-57 111 -193 299 -277 384 -138 137
-240 176 -386 146 -75 -16 -138 -43 -191 -83 -17 -13 -34 -24 -36 -24 -2 0 -7
23 -10 51 -8 65 -51 158 -105 226 -117 147 -361 169 -759 68 -53 -14 -98 -23
-100 -22 -1 2 9 20 24 41 41 62 90 176 103 243 18 90 9 254 -18 327 -76 208
-240 343 -461 380 l-64 11 -19 74 c-74 285 -244 475 -436 486 -37 2 -80 1 -97
-4z m193 -102 c80 -39 140 -108 198 -224 47 -94 89 -225 76 -236 -4 -3 -33
-11 -65 -18 -86 -19 -190 -76 -263 -143 l-64 -60 -65 59 c-78 73 -160 117
-257 142 l-73 19 3 33 c7 59 63 198 111 272 113 173 255 228 399 156z m-616
-671 c-8 -281 73 -666 194 -925 23 -51 40 -93 38 -93 -3 0 -83 31 -177 69 -95
37 -201 78 -238 90 -51 17 -72 30 -100 64 -95 115 -152 225 -170 330 -42 255
94 494 329 574 37 12 81 23 97 23 l31 0 -4 -132z m206 101 c70 -24 136 -67
195 -127 l47 -48 -34 -76 c-130 -281 -133 -711 -7 -910 17 -27 29 -48 26 -48
-68 0 -183 202 -260 456 -60 197 -87 364 -92 571 -3 100 -3 190 1 198 7 19 35
15 124 -16z m708 -5 c13 -72 -3 -344 -30 -484 -57 -301 -161 -572 -259 -675
-54 -56 -76 -59 -42 -5 64 102 95 236 95 414 0 203 -33 371 -102 515 l-31 65
65 62 c67 63 142 106 225 129 69 19 71 19 79 -21z m195 16 c171 -52 296 -194
335 -380 36 -172 -16 -344 -156 -514 -40 -49 -53 -58 -125 -82 -44 -15 -151
-56 -239 -91 -87 -35 -160 -62 -162 -61 -1 2 15 39 36 83 72 151 131 352 171
580 18 101 23 169 23 307 l1 178 26 0 c15 0 55 -9 90 -20z m-583 -327 c63
-159 92 -371 73 -535 -6 -56 -18 -124 -25 -149 -18 -59 -64 -149 -76 -149 -18
0 -60 87 -80 165 -51 198 -32 449 50 668 12 31 25 57 28 57 4 0 18 -26 30 -57z
m-1173 -592 c55 -12 156 -37 225 -57 121 -36 126 -38 205 -106 88 -77 166
-133 235 -168 l45 -24 -40 -7 c-22 -4 -96 -15 -165 -24 -306 -42 -671 -136
-963 -248 l-68 -26 -9 25 c-6 14 -10 30 -10 37 0 6 -22 57 -50 114 -58 120
-64 173 -29 275 42 126 116 200 226 228 60 15 286 4 398 -19z m2748 -5 c83
-40 144 -122 173 -231 23 -85 18 -136 -20 -207 -27 -52 -64 -144 -82 -205 -2
-9 -27 -4 -86 18 -329 125 -708 217 -1061 260 l-97 11 73 42 c75 43 142 93
240 178 47 42 67 51 173 82 104 30 268 66 359 80 17 2 84 3 151 2 109 -2 125
-4 177 -30z m-2022 -230 c221 -92 232 -97 225 -103 -10 -11 -131 19 -196 48
-81 37 -210 119 -186 119 2 0 73 -29 157 -64z m994 55 c-27 -27 -184 -112
-238 -130 -77 -25 -156 -38 -142 -23 6 6 82 40 170 76 88 37 169 70 180 75 27
13 41 13 30 2z m-4689 -101 c72 -19 214 -81 257 -114 16 -12 15 -17 -18 -72
-19 -32 -44 -81 -55 -110 -19 -51 -40 -193 -37 -244 2 -21 -2 -25 -23 -22 -43
5 -189 -18 -244 -39 -29 -10 -79 -35 -111 -54 -45 -27 -60 -33 -67 -23 -37 55
-81 146 -104 213 -22 65 -28 99 -28 180 -1 90 2 106 27 158 64 129 211 176
403 127z m2029 6 c72 -19 112 -42 172 -98 42 -40 55 -62 68 -107 9 -31 32 -91
52 -134 20 -42 34 -79 32 -80 -2 -2 -96 -49 -209 -104 -286 -141 -507 -278
-755 -467 -60 -46 -111 -83 -112 -82 -1 1 7 34 17 73 24 91 40 207 40 285 0
55 6 72 56 167 118 223 274 429 380 502 85 58 161 72 259 45z m4380 -16 c113
-54 294 -279 427 -531 l56 -104 6 -115 c5 -101 29 -233 52 -295 10 -24 16 -28
-148 96 -155 117 -301 214 -470 311 -143 82 -436 228 -458 228 -6 0 -10 3 -8
8 44 84 82 174 91 215 20 85 129 178 244 207 63 15 153 7 208 -20z m2095 3
c48 -21 103 -72 125 -113 58 -114 37 -289 -56 -470 -56 -110 -52 -106 -85 -83
-92 65 -214 103 -334 106 l-78 2 -5 100 c-6 113 -29 191 -83 281 -41 69 -45
63 82 125 163 79 329 99 434 52z m-7667 2 c95 -25 177 -72 247 -144 103 -105
154 -227 167 -397 l6 -82 -58 -123 c-32 -68 -80 -175 -105 -237 l-47 -113 -33
93 c-44 128 -136 306 -234 452 -106 159 -182 251 -294 358 l-91 86 32 25 c113
86 273 118 410 82z m6836 -13 c30 -12 78 -37 108 -57 l53 -35 -106 -103 c-212
-203 -408 -505 -514 -790 l-37 -98 -18 48 c-25 67 -129 301 -164 371 -28 56
-29 61 -20 137 20 188 67 295 173 400 74 74 142 114 236 140 76 21 217 14 289
-13z m-3148 -137 c1327 -128 2505 -832 3244 -1940 421 -632 660 -1321 725
-2090 13 -157 13 -530 -1 -692 -104 -1270 -738 -2415 -1758 -3177 -461 -343
-1016 -606 -1566 -741 -330 -81 -594 -114 -956 -122 -294 -6 -465 3 -719 38
-877 122 -1705 517 -2370 1130 -624 577 -1071 1335 -1275 2164 -87 355 -116
582 -122 969 -6 315 3 472 38 719 136 954 595 1850 1292 2524 730 705 1653
1127 2672 1222 157 15 628 12 796 -4z m-4079 -112 c299 -292 581 -825 533
-1010 -6 -25 -9 -20 -29 48 -69 237 -340 503 -630 620 l-91 36 -3 49 c-4 66
14 164 43 230 29 64 62 114 77 114 6 0 51 -39 100 -87z m7479 40 c51 -82 90
-249 74 -321 -5 -26 -15 -33 -68 -52 -146 -52 -309 -160 -438 -289 -118 -120
-210 -270 -225 -369 -10 -64 -28 -37 -26 39 5 193 223 606 458 871 71 79 168
168 185 168 5 0 23 -21 40 -47z m-7732 -509 c117 -290 383 -561 620 -630 68
-20 73 -23 48 -29 -147 -38 -560 151 -857 392 -84 68 -240 225 -240 241 0 26
133 94 217 111 26 5 77 8 112 8 l64 -2 36 -91z m8111 67 c69 -21 160 -73 160
-91 0 -16 -148 -167 -229 -233 -254 -208 -613 -391 -792 -405 -79 -5 -125 11
-63 23 21 4 64 17 96 30 209 85 476 379 559 615 12 36 27 71 33 79 15 19 152
9 236 -18z m-7989 -21 c220 -87 472 -326 549 -520 37 -95 25 -107 -71 -70
-141 56 -308 205 -423 377 -54 82 -116 203 -116 228 0 8 6 6 61 -15z m7654 -2
c-16 -50 -98 -197 -147 -263 -73 -96 -185 -205 -266 -258 -77 -50 -160 -87
-196 -87 l-25 0 15 53 c57 194 293 434 537 547 77 36 91 37 82 8z m-8026 -361
c184 -151 462 -312 649 -377 l93 -33 -113 -47 c-62 -25 -169 -73 -237 -105
l-123 -58 -82 6 c-170 13 -292 64 -397 167 -185 182 -211 461 -62 657 l25 32
86 -91 c48 -50 120 -118 161 -151z m8661 128 c148 -301 -53 -658 -412 -730
-126 -25 -177 -21 -261 21 -39 21 -143 67 -230 104 l-159 68 83 27 c178 60
465 226 656 379 45 36 119 106 165 156 l83 89 23 -27 c12 -15 36 -54 52 -87z
m-7379 -27 c-23 -91 -69 -195 -108 -246 -51 -68 -38 -22 59 207 34 80 63 140
66 133 2 -6 -6 -49 -17 -94z m5844 -84 c42 -102 74 -188 72 -191 -9 -8 -67 77
-93 134 -34 75 -75 243 -60 243 2 0 38 -84 81 -186z m-6269 -483 c-42 -47
-221 -121 -326 -135 l-45 -6 65 31 c75 36 301 129 314 129 5 0 1 -9 -8 -19z
m6747 -30 c67 -27 151 -63 187 -80 l65 -31 -45 6 c-70 10 -168 43 -242 81 -59
31 -113 73 -94 73 4 0 62 -22 129 -49z m-6901 -153 c-223 -282 -390 -543 -545
-858 -55 -113 -102 -207 -104 -209 -1 -2 -38 12 -80 32 -43 20 -103 43 -134
52 -45 13 -67 26 -107 69 -109 115 -140 260 -82 382 54 113 278 294 531 428
95 50 112 56 167 56 79 0 194 16 279 39 85 24 88 24 75 9z m7023 -13 c83 -20
188 -35 263 -35 71 0 107 -16 291 -125 203 -120 358 -257 412 -363 20 -38 24
-61 23 -122 -2 -105 -31 -176 -103 -251 -49 -52 -64 -62 -125 -79 -37 -11 -98
-35 -135 -53 l-67 -34 -34 76 c-120 276 -314 602 -514 866 -113 148 -113 149
-90 141 11 -3 46 -12 79 -21z m-7882 -1075 c57 -27 108 -50 114 -50 7 0 23 -4
37 -10 l25 -9 -26 -68 c-112 -293 -207 -662 -248 -963 -9 -69 -20 -143 -24
-165 l-7 -40 -24 45 c-36 70 -91 147 -168 236 -68 79 -71 84 -106 205 -64 222
-79 309 -80 474 -1 137 1 154 22 200 27 58 51 86 111 128 58 39 142 66 214 66
49 1 72 -6 160 -49z m8970 13 c86 -41 149 -104 173 -174 15 -43 19 -80 18
-189 -1 -147 -23 -271 -85 -483 -30 -102 -36 -114 -98 -185 -80 -93 -104 -125
-158 -216 l-41 -69 -6 44 c-61 447 -120 702 -246 1049 -23 63 -44 122 -46 130
-4 12 8 19 47 29 28 7 90 33 138 58 83 42 89 43 162 40 59 -3 90 -10 142 -34z
m-9769 -808 c81 -17 196 -77 283 -147 55 -45 65 -58 84 -117 12 -36 53 -143
90 -238 38 -94 69 -174 69 -177 0 -3 -37 13 -82 35 -247 119 -653 205 -936
197 l-132 -3 0 26 c0 50 40 157 82 219 75 114 182 180 343 214 44 9 134 5 199
-9z m10540 -14 c163 -57 278 -179 321 -342 27 -101 41 -94 -173 -95 -149 0
-212 -5 -307 -23 -240 -44 -405 -93 -564 -167 -51 -24 -95 -44 -97 -44 -1 0 9
26 23 58 24 54 91 228 143 370 20 56 31 69 94 119 87 68 189 120 270 139 81
18 214 11 290 -15z m-10006 -413 c56 -86 98 -181 112 -256 15 -74 8 -90 -16
-36 -33 78 -144 347 -144 350 0 12 12 -2 48 -58z m9213 15 c-103 -259 -149
-358 -150 -323 -2 44 27 137 65 212 36 71 90 158 99 158 3 0 -4 -21 -14 -47z
m-9840 -147 c253 -48 481 -129 616 -219 57 -38 93 -77 93 -102 0 -3 -21 9 -47
26 -201 127 -631 123 -912 -7 l-76 -35 -62 64 c-64 68 -111 154 -132 240 -6
26 -9 53 -5 59 4 7 68 9 198 5 149 -3 221 -10 327 -31z m10963 25 c9 -14 -22
-117 -54 -181 -16 -33 -56 -88 -89 -122 l-59 -63 -48 27 c-196 104 -541 143
-772 87 -58 -15 -170 -64 -194 -86 -12 -11 -18 -12 -18 -4 0 28 25 55 95 100
159 104 433 193 725 236 98 15 406 19 414 6z m-11553 -90 c24 -93 74 -184 146
-261 l55 -60 -58 -63 c-71 -76 -118 -161 -143 -259 -22 -84 -18 -82 -131 -47
-164 52 -306 156 -355 261 -78 167 33 347 276 450 69 29 168 58 183 54 5 -1
17 -35 27 -75z m11718 59 c205 -57 367 -184 402 -314 46 -171 -108 -351 -371
-434 -123 -38 -115 -40 -128 29 -16 87 -74 198 -144 274 l-60 66 45 48 c26 27
62 74 81 104 36 56 86 188 86 226 0 26 -1 26 89 1z m-10645 -299 c79 -21 166
-63 166 -81 0 -12 -90 -58 -149 -76 -181 -54 -477 -34 -683 48 -32 12 -58 26
-58 30 0 18 214 82 325 97 109 15 307 6 399 -18z m9885 13 c94 -14 256 -59
300 -84 13 -7 4 -14 -41 -34 -144 -64 -382 -97 -550 -77 -111 14 -219 46 -268
81 l-32 23 29 18 c115 77 340 106 562 73z m-10625 -173 c141 -68 310 -101 512
-101 178 0 312 31 414 95 53 33 51 13 -3 -40 -106 -101 -388 -209 -697 -266
-100 -18 -162 -23 -307 -23 -100 -1 -184 2 -188 5 -10 10 15 98 47 167 24 52
137 192 155 192 3 0 33 -13 67 -29z m11078 -29 c31 -32 70 -86 87 -120 33 -65
65 -171 55 -181 -3 -3 -87 -6 -187 -5 -237 1 -430 34 -674 118 -212 72 -373
172 -373 231 0 2 25 -11 55 -30 90 -54 197 -78 366 -83 215 -6 417 31 549 102
25 14 50 25 56 25 6 1 36 -25 66 -57z m-10082 -154 c-6 -29 -21 -79 -34 -110
-24 -60 -115 -212 -122 -205 -4 4 86 228 136 342 27 59 36 47 20 -27z m9023
-78 c73 -178 97 -240 93 -240 -7 0 -75 109 -104 167 -31 61 -62 163 -62 204 0
37 14 12 73 -131z m-9143 76 c0 -3 -29 -76 -63 -163 -35 -87 -76 -194 -91
-238 -24 -72 -33 -85 -82 -125 -170 -140 -342 -192 -512 -156 -188 39 -330
164 -382 335 -11 35 -20 75 -20 90 l0 26 178 1 c136 0 207 6 307 23 229 40
438 102 575 170 77 39 90 44 90 37z m9330 -55 c143 -62 319 -113 509 -148 120
-21 178 -26 330 -27 l183 -1 -6 -41 c-20 -150 -133 -303 -273 -369 -178 -85
-376 -65 -555 55 -130 87 -129 86 -203 285 -37 99 -80 209 -96 244 -16 34 -23
61 -16 58 6 -3 64 -28 127 -56z m-9165 -246 c44 -345 139 -730 249 -1010 20
-49 32 -92 28 -95 -4 -4 -27 -12 -52 -19 -25 -7 -86 -33 -135 -57 -97 -47
-128 -52 -217 -33 -111 24 -202 89 -245 177 -27 55 -28 62 -27 207 1 163 20
273 85 494 30 102 35 112 101 187 73 83 144 183 174 246 10 21 19 37 20 35 1
-1 9 -60 19 -132z m8916 83 c34 -67 94 -152 165 -233 69 -80 79 -101 124 -270
50 -186 63 -272 64 -410 1 -103 -3 -141 -18 -184 -31 -90 -131 -171 -245 -197
-91 -22 -129 -18 -211 22 -41 20 -104 47 -140 60 -37 14 -64 29 -63 36 1 7 29
92 63 188 96 273 175 603 209 870 16 124 22 160 27 160 2 0 13 -19 25 -42z
m-8591 -1279 c0 -21 148 -317 228 -457 97 -169 194 -315 311 -470 124 -164
120 -158 96 -148 -62 23 -194 47 -295 52 l-115 6 -104 56 c-251 133 -476 314
-532 427 -19 41 -24 65 -24 130 1 69 5 90 32 148 44 93 112 158 182 174 29 7
87 30 129 51 89 45 92 46 92 31z m8428 -79 c63 -19 78 -29 126 -81 70 -75 99
-147 100 -249 1 -64 -4 -83 -28 -129 -60 -115 -253 -271 -515 -417 l-105 -58
-120 -8 c-70 -4 -161 -17 -216 -31 -52 -14 -96 -23 -98 -22 -2 2 30 45 71 98
203 259 405 593 537 889 l44 96 66 -33 c36 -18 98 -43 138 -55z m-8168 -1040
c71 -36 306 -140 373 -165 l48 -18 -98 -37 c-292 -110 -587 -302 -790 -514
l-103 -106 -35 53 c-52 78 -76 151 -82 242 -10 150 39 277 152 391 102 104
213 153 391 173 38 5 73 9 77 10 4 0 34 -13 67 -29z m7935 4 c117 -22 213 -72
294 -152 180 -178 211 -434 76 -636 l-37 -56 -90 95 c-103 109 -218 203 -373
305 -129 85 -349 196 -453 229 -41 12 -72 24 -70 26 2 1 68 30 148 64 80 34
186 81 235 105 100 48 113 49 270 20z m-7654 -14 c44 -12 103 -31 132 -44 55
-25 142 -84 134 -92 -2 -2 -64 20 -138 50 -258 105 -292 128 -128 86z m7199
-6 c-46 -21 -269 -113 -320 -132 -9 -3 -5 6 9 21 47 51 259 136 341 136 19 0
11 -6 -30 -25z m-6867 -244 c5 -4 -11 -10 -35 -14 -25 -4 -72 -20 -106 -36
-230 -108 -460 -370 -552 -627 -19 -53 -27 -63 -52 -68 -39 -9 -140 3 -213 26
-62 19 -155 72 -155 88 0 17 89 114 168 185 193 172 469 339 686 415 132 47
230 58 259 31z m6713 -25 c256 -84 583 -293 782 -498 50 -53 92 -101 92 -106
0 -6 -19 -23 -42 -38 -127 -80 -368 -110 -368 -46 0 30 -63 164 -114 243 -149
231 -360 406 -546 454 -51 13 -52 17 -10 29 31 8 108 -6 206 -38z m-6727 -157
c-53 -127 -178 -275 -324 -386 -75 -56 -270 -160 -281 -149 -11 11 41 125 94
207 128 200 313 361 471 410 l56 18 3 -23 c2 -13 -7 -47 -19 -77z m119 -7
c-14 -179 -197 -538 -405 -792 -66 -81 -217 -229 -233 -229 -18 0 -70 91 -91
160 -27 84 -37 221 -18 236 8 6 43 21 79 33 137 48 293 155 426 293 128 134
198 248 219 362 12 62 28 16 23 -63z m6327 -60 c95 -206 400 -473 617 -537 36
-11 64 -26 70 -38 15 -28 1 -159 -26 -236 -24 -71 -70 -150 -87 -150 -22 0
-206 191 -284 295 -201 267 -352 583 -357 742 -2 84 12 99 29 32 8 -30 25 -78
38 -108z m135 136 c198 -82 460 -374 525 -585 6 -22 5 -23 -17 -17 -211 65
-503 327 -585 525 -43 104 -27 120 77 77z m-6287 -145 c38 -73 71 -171 81
-242 l7 -45 -16 28 c-18 30 -145 341 -145 353 0 19 42 -35 73 -94z m5928 -53
c-80 -196 -99 -238 -100 -214 -1 38 39 177 69 240 29 61 78 130 86 122 2 -2
-23 -68 -55 -148z m-5863 -376 c37 -73 41 -129 17 -251 -77 -386 -476 -581
-784 -382 l-63 41 94 88 c107 101 226 250 323 401 77 121 183 334 215 433 l22
68 72 -168 c40 -92 87 -196 104 -230z m5983 325 c33 -104 144 -324 229 -453
102 -155 196 -270 305 -373 l95 -90 -56 -37 c-202 -135 -458 -104 -636 76
-101 102 -147 210 -167 392 l-9 77 73 158 c40 86 87 194 106 240 18 45 34 82
35 82 2 0 13 -33 25 -72z m-5906 32 c10 -15 226 -177 330 -247 191 -127 470
-282 656 -364 l76 -33 -34 -69 c-20 -39 -44 -100 -54 -136 -16 -57 -26 -73
-78 -122 -76 -72 -146 -101 -251 -103 -63 0 -83 4 -125 26 -108 56 -240 206
-360 409 -109 184 -125 220 -125 291 0 95 -23 235 -56 341 -6 18 11 24 21 7z
m5650 -7 c-21 -56 -46 -196 -53 -300 l-8 -120 -58 -104 c-146 -262 -302 -455
-417 -515 -46 -24 -65 -29 -129 -28 -102 1 -174 30 -249 100 -52 48 -62 63
-81 126 -12 40 -37 102 -55 138 l-33 66 106 48 c291 130 686 372 907 555 64
53 81 61 70 34z m-7180 -397 c89 -54 167 -77 280 -83 l100 -5 2 -78 c3 -120
41 -242 106 -334 23 -33 27 -29 -83 -85 -423 -217 -715 -12 -573 401 25 72 97
218 107 218 2 0 29 -15 61 -34z m8782 -20 c99 -173 132 -342 92 -477 -19 -63
-99 -141 -164 -160 -114 -33 -267 -8 -420 68 -116 57 -113 52 -71 120 55 90
77 164 83 279 l6 101 101 6 c115 6 194 29 277 82 30 19 56 35 59 35 3 0 20
-24 37 -54z m-5967 -306 c347 -126 602 -185 1049 -246 l44 -6 -69 -41 c-91
-54 -123 -78 -216 -158 -71 -62 -83 -68 -185 -98 -212 -62 -336 -84 -483 -85
-109 -1 -146 3 -189 18 -111 38 -197 167 -208 309 -5 72 -5 75 40 164 24 50
51 114 58 143 10 38 17 50 29 46 8 -2 67 -23 130 -46z m3220 -10 c9 -30 36
-93 59 -139 45 -93 50 -129 27 -222 -26 -114 -107 -214 -197 -245 -43 -15 -81
-19 -184 -18 -138 1 -224 14 -410 64 -169 45 -190 55 -270 124 -76 66 -158
125 -232 166 -24 13 -41 25 -39 27 1 2 56 10 122 19 299 39 599 109 884 206
96 33 182 64 190 69 24 14 32 6 50 -51z m-1950 -297 c-71 -33 -164 -72 -275
-114 l-50 -19 30 25 c75 63 266 144 340 144 25 -1 17 -7 -45 -36z m553 21 c33
-8 87 -29 120 -46 58 -29 167 -97 167 -104 0 -8 -370 144 -384 157 -15 14 30
11 97 -7z m-366 -42 c-29 -31 -75 -145 -92 -227 -23 -107 -23 -320 -1 -440 20
-111 59 -234 94 -299 l27 -48 -60 -57 c-33 -31 -88 -70 -121 -88 -71 -38 -174
-67 -187 -54 -6 6 -7 89 -4 198 3 146 10 219 31 324 48 253 130 483 218 616
49 72 70 92 97 93 11 0 11 -4 -2 -18z m188 -9 c161 -160 312 -692 303 -1069
-2 -73 -6 -135 -9 -138 -10 -11 -122 24 -189 60 -36 19 -90 59 -120 89 l-54
54 32 65 c73 151 107 335 100 552 -5 162 -30 271 -83 359 -37 60 -27 74 20 28z
m-94 -54 c34 -48 66 -157 80 -267 20 -168 -13 -406 -77 -550 -30 -67 -29 -67
-73 64 -83 248 -76 567 15 735 15 27 28 49 30 49 1 0 13 -14 25 -31z m-321
-90 c-122 -252 -208 -666 -198 -949 5 -137 9 -132 -91 -105 -252 67 -406 315
-361 583 15 91 70 205 143 298 l56 71 158 59 c87 32 196 74 243 94 47 20 86
36 88 35 1 -1 -16 -40 -38 -86z m865 -34 c199 -74 198 -73 285 -203 153 -229
141 -492 -31 -676 -63 -68 -148 -120 -233 -142 -98 -26 -91 -39 -92 169 -2
333 -62 585 -231 964 -3 7 24 0 58 -16 35 -16 145 -59 244 -96z m-499 -954
c75 -69 187 -127 273 -143 69 -13 67 -5 29 -128 -83 -263 -263 -417 -434 -371
-130 35 -257 197 -314 402 -25 90 -25 89 1 89 77 0 263 96 338 174 19 20 37
36 39 36 2 0 33 -27 68 -59z"/>
<path d="M6210 10459 c-861 -37 -1679 -347 -2365 -897 -154 -124 -483 -453
-607 -607 -514 -642 -812 -1383 -888 -2205 -14 -147 -14 -541 0 -692 89 -995
509 -1880 1221 -2573 557 -542 1258 -913 2012 -1065 311 -63 437 -75 817 -75
300 0 366 3 505 22 811 111 1499 414 2120 932 116 96 380 360 476 476 518 621
821 1309 932 2120 19 139 22 205 22 505 0 380 -13 516 -75 822 -248 1212
-1053 2259 -2167 2816 -473 237 -1060 395 -1554 417 -254 11 -288 12 -449 4z
m568 -244 c1313 -132 2460 -922 3052 -2104 194 -389 318 -800 377 -1256 22
-174 25 -699 5 -865 -98 -796 -394 -1484 -891 -2070 -115 -134 -373 -388 -501
-492 -604 -487 -1299 -770 -2073 -844 -209 -20 -613 -15 -807 10 -621 80
-1183 290 -1685 630 -946 640 -1556 1662 -1670 2798 -19 193 -19 568 0 758
143 1406 1031 2606 2336 3159 321 135 724 238 1087 275 180 19 586 19 770 1z"/>
<path d="M4917 11765 c-3 -11 -15 -89 -28 -173 -17 -115 -20 -155 -11 -161 18
-11 332 -54 340 -46 5 5 61 341 58 346 -1 0 -81 13 -178 28 -177 27 -177 27
-181 6z m196 -86 c72 -11 78 -14 73 -33 -2 -12 -10 -58 -17 -104 -9 -68 -14
-82 -28 -78 -9 2 -55 10 -104 17 -71 10 -87 15 -83 28 2 9 10 56 17 104 12 87
13 88 38 83 14 -3 61 -10 104 -17z"/>
<path d="M7688 11756 c-76 -12 -140 -24 -142 -27 -5 -5 43 -341 50 -348 5 -6
343 45 350 51 2 3 -7 80 -21 171 -14 91 -25 168 -25 171 0 11 -73 4 -212 -18z
m146 -73 c8 -29 29 -184 25 -188 -2 -2 -48 -10 -102 -17 -96 -15 -97 -14 -102
6 -9 43 -27 178 -23 181 2 2 110 22 190 34 4 1 9 -7 12 -16z"/>
<path d="M3535 11116 c-55 -74 -101 -139 -103 -145 -3 -8 254 -207 277 -214 9
-2 211 267 211 282 0 9 -250 198 -274 207 -7 3 -57 -56 -111 -130z m235 -54
c25 -19 44 -39 42 -44 -1 -5 -27 -43 -58 -84 -35 -48 -59 -72 -67 -67 -7 4
-44 31 -84 61 l-72 53 62 84 61 85 35 -27 c20 -15 56 -42 81 -61z"/>
<path d="M9014 11148 c-76 -56 -140 -103 -142 -104 -3 -2 186 -263 207 -286 5
-6 251 168 284 201 6 6 -29 61 -94 150 -57 78 -106 141 -110 141 -3 0 -69 -46
-145 -102z m246 -164 c0 -5 -12 -19 -27 -30 -16 -11 -51 -37 -80 -57 l-52 -38
-61 82 c-39 50 -59 84 -53 90 5 5 43 34 83 63 l74 54 58 -77 c32 -42 58 -81
58 -87z"/>
<path d="M1673 9254 l-142 -105 105 -142 c58 -78 109 -142 112 -142 13 0 281
200 281 210 1 12 -196 279 -207 282 -4 1 -71 -45 -149 -103z m199 -84 l57 -79
-57 -44 c-31 -24 -69 -52 -84 -61 l-27 -18 -60 83 -61 82 78 58 c42 32 82 58
87 58 6 0 36 -36 67 -79z"/>
<path d="M10870 9221 c-57 -77 -101 -143 -100 -148 3 -9 281 -216 285 -211 30
37 205 280 205 286 0 7 -273 212 -283 212 -3 0 -51 -63 -107 -139z m212 -30
l78 -58 -56 -74 c-30 -41 -59 -78 -64 -83 -4 -4 -44 19 -89 54 l-82 61 31 42
c18 23 44 59 58 79 15 21 32 38 37 38 6 -1 45 -27 87 -59z"/>
<path d="M1165 7904 c-77 -12 -143 -23 -146 -23 -4 -1 46 -353 50 -357 1 0 78
12 173 26 101 15 173 30 175 37 4 12 -33 292 -43 326 -7 22 -30 21 -209 -9z
m154 -141 c7 -49 15 -95 17 -104 4 -14 -10 -19 -78 -28 -46 -7 -93 -15 -104
-17 -20 -5 -22 1 -37 97 -9 57 -15 104 -14 105 1 1 45 9 97 17 52 8 98 15 101
16 3 0 11 -38 18 -86z"/>
<path d="M11429 7928 c-1 -4 -55 -348 -55 -349 1 0 80 -13 176 -28 155 -24
176 -25 181 -12 11 27 52 332 45 338 -11 11 -343 60 -347 51z m201 -102 c36
-7 64 -16 64 -22 -22 -174 -27 -195 -48 -190 -12 2 -58 10 -104 17 -82 11 -83
12 -78 38 3 14 10 61 17 103 l11 76 37 -5 c20 -3 65 -11 101 -17z"/>
<path d="M1068 5248 c-10 -24 -52 -337 -47 -342 7 -7 341 -57 347 -52 6 7 57
345 51 350 -2 2 -69 14 -149 25 -80 12 -157 24 -171 27 -17 3 -28 0 -31 -8z
m155 -88 c128 -19 116 -5 99 -117 -7 -54 -15 -100 -17 -101 -5 -6 -181 19
-193 27 -12 8 16 201 30 201 5 0 42 -5 81 -10z"/>
<path d="M11550 5234 c-85 -13 -160 -26 -166 -28 -7 -3 -2 -58 16 -175 14 -94
29 -173 31 -176 6 -5 340 43 348 51 4 4 -34 282 -46 332 -3 12 -10 22 -17 21
-6 -1 -81 -12 -166 -25z m131 -161 c10 -67 12 -100 4 -104 -13 -9 -185 -33
-190 -27 -6 6 -33 192 -29 197 5 5 139 28 175 30 25 1 26 -1 40 -96z"/>
<path d="M1657 3794 c-54 -74 -100 -140 -103 -147 -2 -8 51 -53 135 -115 77
-56 142 -102 145 -102 4 0 133 170 193 256 l22 31 -141 104 c-78 57 -144 105
-147 106 -3 1 -50 -59 -104 -133z m204 -35 l80 -60 -38 -52 c-20 -29 -46 -64
-57 -79 -11 -16 -25 -28 -30 -28 -6 0 -45 26 -87 58 l-76 57 60 83 c32 45 61
82 64 82 2 0 40 -27 84 -61z"/>
<path d="M10895 3824 c-77 -57 -139 -109 -138 -114 4 -14 202 -280 208 -280
15 0 280 204 279 214 -1 10 -201 287 -207 285 -1 0 -65 -47 -142 -105z m190
-83 c30 -41 55 -78 55 -82 0 -12 -150 -121 -160 -117 -10 3 -120 148 -120 157
1 9 154 120 162 118 4 -1 32 -35 63 -76z"/>
<path d="M3590 1939 c-74 -55 -139 -104 -144 -109 -8 -8 192 -290 207 -290 5
0 252 177 285 205 3 3 -188 266 -207 287 -3 3 -67 -39 -141 -93z m180 -87 c30
-42 56 -79 58 -83 1 -3 -34 -34 -79 -67 l-82 -61 -58 77 c-32 42 -58 82 -58
87 0 9 148 125 159 124 3 0 30 -34 60 -77z"/>
<path d="M8965 1894 c-59 -80 -104 -149 -99 -153 42 -35 273 -201 280 -201 10
0 209 269 209 281 0 7 -52 48 -207 162 l-76 56 -107 -145z m208 -24 c42 -30
77 -59 77 -63 0 -12 -112 -157 -122 -157 -15 0 -160 110 -156 119 7 19 114
160 118 158 3 -1 40 -27 83 -57z"/>
<path d="M5045 1400 c-152 -23 -170 -28 -173 -45 -3 -24 43 -323 51 -331 6 -7
311 34 338 45 13 5 12 25 -11 179 -15 94 -29 173 -31 175 -2 2 -80 -9 -174
-23z m125 -142 c6 -46 14 -92 16 -104 5 -19 -1 -22 -88 -34 -51 -7 -97 -13
-103 -14 -7 -1 -48 193 -41 201 1 1 173 30 192 32 7 1 16 -32 24 -81z"/>
<path d="M7594 1416 c-7 -21 -53 -340 -49 -344 7 -7 344 -56 349 -51 8 8 56
342 51 348 -3 2 -82 17 -176 31 -117 18 -172 23 -175 16z m186 -96 c41 -6 76
-13 78 -15 4 -4 -15 -157 -24 -186 -4 -14 -13 -14 -102 -1 -53 8 -99 16 -101
18 -4 3 17 155 26 187 3 11 11 16 26 12 12 -2 56 -9 97 -15z"/>
</g>
</svg>
